<?xml version="1.0" encoding="UTF-8"?>
<svg xmlns="http://www.w3.org/2000/svg" viewBox="0 0 200 200" width="200" height="200">
  <path d="M1550 1229 842 614 1550 0H1393L731 567H360V0H254V1229H360V670H750L1401 1229Z" transform="translate(0.68, 126) scale(0.039062, -0.039062)" fill="#000"/>
  <path d="M1647 1229V578Q1647 293 1461.0 136.5Q1275 -20 895 -20Q164 -20 164 487V557H270V487Q270 279 424.0 180.5Q578 82 895 82Q1540 82 1540 569V1135H193V1229Z" transform="translate(59.82, 126) scale(0.039062, -0.039062)" fill="#000"/>
  <path d="M1647 1229V578Q1647 293 1461.0 136.5Q1275 -20 895 -20Q164 -20 164 487V557H270V487Q270 279 424.0 180.5Q578 82 895 82Q1540 82 1540 569V1135H193V1229Z" transform="translate(128.07, 126) scale(0.039062, -0.039062)" fill="#000"/>
  <line x1="40" y1="148" x2="160" y2="148" stroke="#000" stroke-width="1.5" opacity="0.25"/>
  <path d="M1296 1229V1130H698V0H592V1130H-6V1229Z" transform="translate(68.31, 168) scale(0.006836, -0.006836)" fill="#000"/>
  <path d="M1446 1135H360V645H1370V551H360V94H1446V0H254V1229H1446Z" transform="translate(83.12, 168) scale(0.006836, -0.006836)" fill="#000"/>
  <path d="M944 -20Q548 -20 356.0 132.5Q164 285 164 569V659Q164 943 356.0 1096.0Q548 1249 944 1249Q1299 1249 1501.5 1127.0Q1704 1005 1718 786H1604Q1591 961 1417.5 1054.0Q1244 1147 944 1147Q603 1147 438.5 1024.0Q274 901 274 659V569Q274 327 438.0 204.5Q602 82 944 82Q1245 82 1410.5 178.0Q1576 274 1602 461H1716Q1689 231 1494.5 105.5Q1300 -20 944 -20Z" transform="translate(99.85, 168) scale(0.006836, -0.006836)" fill="#000"/>
  <path d="M1536 1229H1642V0H1536V557H360V0H254V1229H360V651H1536Z" transform="translate(118.73, 168) scale(0.006836, -0.006836)" fill="#000"/>
</svg>